# xmcd
#
# Track frame offsets:
#	150
#	8071
#	23296
#	40027
#	47391
#	65861
#	77066
#	91861
#	100464
#	109116
#
# Disc length: 1628 seconds
#
# Revision: 0
# Processed by: cddbd v1.5.2PL0 Copyright (c) Steve Scherf et al.
# Submitted via: EasyCDDAExtractor 11.5.0.1
#
DISCID=6b065a0a
DTITLE=John Marshall Family - Tidings Of Joy
DYEAR=1997
DGENRE=gospel
TTITLE0=We Wish You A Merry Christmas
TTITLE1=Once In Royal David's City
TTITLE2=Elizabeth's Song
TTITLE3=God Rest Ye Merry Christmas
TTITLE4=Lo, How The Rose E'er Blooming
TTITLE5=Merry, Merry Christmas Time
TTITLE6=How Great Our Joy/Joy To The World
TTITLE7=Hear The Angels Shouting
TTITLE8=Hark! The Herald Angels Sing
TTITLE9=Blow, Ye Golden Trumpets, Blow
EXTD=
EXTT0=
EXTT1=
EXTT2=
EXTT3=
EXTT4=
EXTT5=
EXTT6=
EXTT7=
EXTT8=
EXTT9=
PLAYORDER=
